{
  "title": "Avengers.Age.of.Ultron.2015.CamRip.XviD-FANTA",
  "uid": 11847609,
  "size": 2115086279,
  "categoryP": "video",
  "categoryS": "movies",
  "magnet": "?xt=urn:btih:3ca765b928ce804d3042d2fa8d34470720fd6f9a&amp;dn=Avengers.Age.of.Ultron.2015.CamRip.XviD-FANTA&amp;tr=udp%3A%2F%2Ftracker.openbittorrent.com%3A80&amp;tr=udp%3A%2F%2Fopen.demonii.com%3A1337&amp;tr=udp%3A%2F%2Ftracker.coppersurfer.tk%3A6969&amp;tr=udp%3A%2F%2Fexodus.desync.com%3A6969",
  "seeders": 67,
  "leechers": 5,
  "uploader": "xxxlavalxxx",
  "files": 4,
  "time": 1429981351,
  "description": " &lt;a href=&quot;http://extraimago.com/image/2aF&quot; rel=&quot;nofollow&quot; target=&quot;_NEW&quot;&gt;http://extraimago.com/image/2aF&lt;/a&gt;\n &lt;a href=&quot;\nhttp://www.imdb.com/title/tt2395427/&quot; rel=&quot;nofollow&quot; target=&quot;_NEW&quot;&gt;\nhttp://www.imdb.com/title/tt2395427/&lt;/a&gt;\n\n\nWhen Tony Stark tries to jumpstart a dormant peacekeeping program, things go awry and Earth's Mightiest Heroes, including Iron Man, Captain America, Thor, The Incredible Hulk, Black Widow and Hawkeye, are put to the ultimate test as the fate of the planet hangs in the balance. As the villainous Ultron emerges, it is up to The Avengers to stop him from enacting his terrible plans, and soon uneasy alliances and unexpected action pave the way for a global adventure.\n\nDirector: Joss Whedon\nWriters: Joss Whedon, Stan Lee (comic book)\nStars: Robert Downey Jr., Chris Evans, Mark Ruffalo\nGenres: Action | Adventure | Sci-Fi | Thriller\nCountry: USA\nLanguage: English\n\n\nFormat                                   : AVI\nFormat/Info                              : Audio Video Interleave\nFormat profile                           : OpenDML\nFormat settings                          : rec\nFile size                                : 1.93 GiB\nDuration                                 : 2h 12mn\nOverall bit rate                         : 2 087 Kbps\nWriting application                      : AVI-Mux GUI 1.17.8.3, Feb 16 201019:42:50\n\nVideo\nID                                       : 0\nFormat                                   : MPEG-4 Visual\nFormat profile                           : Advanced Simple@L5\nFormat settings, BVOP                    : 2\nFormat settings, QPel                    : No\nFormat settings, GMC                     : No warppoints\nFormat settings, Matrix                  : Default (H.263)\nMuxing mode                              : Packed bitstream\nCodec ID                                 : XVID\nCodec ID/Hint                            : XviD\nDuration                                 : 2h 12mn\nBit rate                                 : 1 892 Kbps\nWidth                                    : 720 pixels\nHeight                                   : 304 pixels\nDisplay aspect ratio                     : 2.35:1\nFrame rate                               : 29.970 fps\nColor space                              : YUV\nChroma subsampling                       : 4:2:0\nBit depth                                : 8 bits\nScan type                                : Progressive\nCompression mode                         : Lossy\nBits/(Pixel*Frame)                       : 0.288\nStream size                              : 1.75 GiB (91%)\nWriting library                          : XviD 64\n\nAudio\nID                                       : 1\nFormat                                   : AC-3\nFormat/Info                              : Audio Coding 3\nMode extension                           : CM (complete main)\nFormat settings, Endianness              : Big\nCodec ID                                 : 2000\nDuration                                 : 2h 11mn\nBit rate mode                            : Constant\nBit rate                                 : 192 Kbps\nChannel(s)                               : 2 channels\nChannel positions                        : Front: L R\nSampling rate                            : 48.0 KHz\nBit depth                                : 16 bits\nCompression mode                         : Lossy\nStream size                              : 180 MiB (9%)\nAlignment                                : Aligned on interleaves\nInterleave, duration                     : 65 ms (1.94 video frames)\nInterleave, preload duration             : 192 ms\nTitle                                    : Avengers Age of Ultron 2015 CAM\n\n &lt;a href=&quot;\nhttp://extraimago.com/image/221&quot; rel=&quot;nofollow&quot; target=&quot;_NEW&quot;&gt;\nhttp://extraimago.com/image/221&lt;/a&gt; &lt;a href=&quot;\nhttp://extraimago.com/image/22E&quot; rel=&quot;nofollow&quot; target=&quot;_NEW&quot;&gt;\nhttp://extraimago.com/image/22E&lt;/a&gt; &lt;a href=&quot;\nhttp://extraimago.com/image/22O&quot; rel=&quot;nofollow&quot; target=&quot;_NEW&quot;&gt;\nhttp://extraimago.com/image/22O&lt;/a&gt; &lt;a href=&quot;\nhttp://extraimago.com/image/22S&quot; rel=&quot;nofollow&quot; target=&quot;_NEW&quot;&gt;\nhttp://extraimago.com/image/22S&lt;/a&gt; &lt;a href=&quot;\nhttp://extraimago.com/image/22q&quot; rel=&quot;nofollow&quot; target=&quot;_NEW&quot;&gt;\nhttp://extraimago.com/image/22q&lt;/a&gt; &lt;a href=&quot;\nhttp://extraimago.com/image/22y&quot; rel=&quot;nofollow&quot; target=&quot;_NEW&quot;&gt;\nhttp://extraimago.com/image/22y&lt;/a&gt; &lt;a href=&quot;\nhttp://extraimago.com/image/22L&quot; rel=&quot;nofollow&quot; target=&quot;_NEW&quot;&gt;\nhttp://extraimago.com/image/22L&lt;/a&gt; &lt;a href=&quot;\nhttp://extraimago.com/image/22Q&quot; rel=&quot;nofollow&quot; target=&quot;_NEW&quot;&gt;\nhttp://extraimago.com/image/22Q&lt;/a&gt; &lt;a href=&quot;\nhttp://extraimago.com/image/22R&quot; rel=&quot;nofollow&quot; target=&quot;_NEW&quot;&gt;\nhttp://extraimago.com/image/22R&lt;/a&gt; &lt;a href=&quot;\nhttp://extraimago.com/image/22m&quot; rel=&quot;nofollow&quot; target=&quot;_NEW&quot;&gt;\nhttp://extraimago.com/image/22m&lt;/a&gt; &lt;a href=&quot;\nhttp://extraimago.com/image/22i&quot; rel=&quot;nofollow&quot; target=&quot;_NEW&quot;&gt;\nhttp://extraimago.com/image/22i&lt;/a&gt; &lt;a href=&quot;\nhttp://extraimago.com/image/22l&quot; rel=&quot;nofollow&quot; target=&quot;_NEW&quot;&gt;\nhttp://extraimago.com/image/22l&lt;/a&gt;",
  "parsed": {
    "xt": "urn:btih:3ca765b928ce804d3042d2fa8d34470720fd6f9a",
    "dn": "Avengers.Age.of.Ultron.2015.CamRip.XviD-FANTA",
    "tr": [
      "udp://exodus.desync.com:6969",
      "udp://open.demonii.com:1337",
      "udp://tracker.coppersurfer.tk:6969",
      "udp://tracker.openbittorrent.com:80"
    ],
    "infoHash": "3ca765b928ce804d3042d2fa8d34470720fd6f9a",
    "infoHashBuffer": {
      "type": "Buffer",
      "data": [
        60,
        167,
        101,
        185,
        40,
        206,
        128,
        77,
        48,
        66,
        210,
        250,
        141,
        52,
        71,
        7,
        32,
        253,
        111,
        154
      ]
    },
    "name": "Avengers.Age.of.Ultron.2015.CamRip.XviD-FANTA",
    "announce": [
      "udp://exodus.desync.com:6969",
      "udp://open.demonii.com:1337",
      "udp://tracker.coppersurfer.tk:6969",
      "udp://tracker.openbittorrent.com:80"
    ],
    "urlList": []
  },
  "previous": 72,
  "peers": 18,
  "last_updated": "2016-12-24T22:45:30.192Z"
}